<svg id="Layer_1" data-name="Layer 1" xmlns="http://www.w3.org/2000/svg" viewBox="0 0 1554.33 1445.82"><path d="M478.8,391l7.05,4.21-1.34,1.92Q481.78,401,479.1,405q-1.34,2-2.7,3.95c-23.26,33.92-35.7,70.24-40.91,108.92l-.34,2.44a307.35,307.35,0,0,0-2.87,43.37v2.26A348.09,348.09,0,0,0,438.51,633l.53,2.69c7.33,36,24,69.68,46.81,100.69a36.17,36.17,0,0,1-5,4.2c-7.07.25-16.61-8.78-21.79-12.68-2.85-2.18-5.64-4.41-8.42-6.65l-2.17-1.74c-9.83-7.93-19-15.93-27-25.16l-2.55-2.84c-40.21-45.21-52.12-102.54-44-157.63l.48-3.28a161.9,161.9,0,0,1,5.82-22.83c.58-2,1.17-4,1.76-6,9.73-30,29.41-55.64,53.63-78.85l2.2-2.15a95.73,95.73,0,0,1,11.58-9.61c1.81-1.31,3.55-2.63,5.29-4A248.09,248.09,0,0,1,478.8,391Z" transform="translate(-372.42 -132.85)" style="fill:#49a03d"/><path d="M739,389c4,1,6.77,2.94,9.88,5.12l1.9,1.29c1.81,1.22,3.6,2.46,5.4,3.7l4.57,3.08,2,1.41c1.52,1,3,2.08,4.57,3.1A211.27,211.27,0,0,1,800.63,435l2.75,2.82c26,26.31,43,59,47.35,92.08a10.69,10.69,0,0,0,1.49,5.14c1.53,8.41,1.25,17,1.23,25.43,0,2.34,0,4.67,0,7,0,24.18,0,24.18-2.74,35.66l-.38,1.69c-.44,2-.92,3.91-1.4,5.86l-.64,2.82a141.46,141.46,0,0,1-8.15,23.63l-.8,1.84c-14.63,33.77-42.05,66.24-77.69,89l-3.4,2.28c-3.57,2.39-7.17,4.73-10.78,7.07L745.07,739a27.7,27.7,0,0,1-5.23,2.64c-3.06-.37-3.06-.37-5.45-1.7a8.28,8.28,0,0,1-2.18-3.4,12.18,12.18,0,0,1,2.34-3.76l1.68-2.19,1.84-2.33,3.7-4.88,1.84-2.42c35.88-48,45.33-102.95,45.47-157.59v-2.44a291.36,291.36,0,0,0-3.62-49.67l-.36-2.16c-6.54-38.83-21.88-77.25-49.24-110.36l-1.45-1.77-1.29-1.54c-.91-1.4-.91-1.4-.91-3.95C734.49,389.6,735.7,388.86,739,389Z" transform="translate(-372.42 -132.85)" style="fill:#49a03d"/><path d="M753.28,192.13c9.81,6.36,16.35,16.06,18.21,26.1,1.51,15.38-.78,30.44-13.47,42.66-8.61,7-20.19,11-32.41,11.18-13-.13-22.92-3.22-32.52-10.26-13-10.81-14-23.93-13.77-38.21.45-10.18,4.77-18.06,12.81-25.84l1.89-1.82C709.24,182.51,735.27,182.52,753.28,192.13Zm-49.17,4.6c-8.4,9.38-10.29,20.34-10.13,31.67l0,2.88c.06,11.58,3.3,23.63,13.47,32.27,7,5.1,12.72,6.07,22.11,5.86,8.12-.71,12.64-4.34,17.68-9.3,10.38-11.59,11.93-29.42,9.39-43.23-2.3-9.83-6.89-19.1-17-25.35C726.32,184.4,713.74,187.16,704.11,196.73Z" transform="translate(-372.42 -132.85)" style="fill:#49a03d"/><path d="M648.17,726.11h11.76V829.52H648.17Z" transform="translate(-372.42 -132.85)" style="fill:#49a03d"/><path d="M513.67,219a13.88,13.88,0,0,1,6.5,8.09c.46,4.23.05,7.63-2.48,11.13a13.89,13.89,0,0,1-8.39,4.57c-3.91.14-6.47-.42-9.6-2.83-2.87-2.77-3.77-5.52-3.95-9.47a13,13,0,0,1,4.33-9.81A14.75,14.75,0,0,1,513.67,219Z" transform="translate(-372.42 -132.85)" style="fill:#49a03d"/><path d="M579.77,388.61c1.85-.18,3.7-.31,5.56-.41l3.13-.24c5.54,1.09,7.44,4.1,10.31,7.26l1.05,1.14c2.68,2.93,5.29,5.89,7.89,8.85.78.9,1.57,1.79,2.36,2.68l5.7,6.49a93.46,93.46,0,0,0,9-9.56c1.45-1.78,2.94-3.54,4.43-5.3.76-.92,1.5-1.84,2.23-2.77a34.42,34.42,0,0,1,8.34-8.14,40.79,40.79,0,0,1,13,0c-4.21,5.25-8.75,10.32-13.5,15.37l-4.22,4.5L634,409.63c-3.77,4-7.49,8.06-11.21,12.11l-1.83,2-4.17,4.53A77.39,77.39,0,0,1,606.33,418l-3.74-4.1-1.92-2.1c-2.93-3.18-5.92-6.34-8.9-9.5C587.54,397.83,583.43,393.32,579.77,388.61Z" transform="translate(-372.42 -132.85)" style="fill:#49a03d"/><path d="M725.18,132.85c4.48,2.61,7.23,5.65,10.31,9l1.65,1.78,5.19,5.66,3.41,3.7q10.47,11.37,20.59,22.86a52.87,52.87,0,0,1-13.71,0c-4.23-2.46-6.46-5.77-9.15-9-2.15-2.35-4.34-4.68-6.53-7-2.92-3.11-5.79-6.23-8.67-9.35a9.12,9.12,0,0,0-3.09-2.63L723,150.32l-8.12,9-3.52,3.91-5.05,5.61-3.07,3.41c-2.41,2.59-2.41,2.59-3.94,3.59-4.57.14-9.14,0-13.71,0a181.06,181.06,0,0,1,15.62-18.19l5.28-5.55,2.59-2.71c4.21-4.43,8.35-8.89,12.49-13.34A14.9,14.9,0,0,1,725.18,132.85Z" transform="translate(-372.42 -132.85)" style="fill:#49a03d"/><path d="M449.59,979.65c4.11,1.58,6.82,3.11,9,7v3h-23c1-4.87,1.44-6.16,5.26-9.06C443.88,978.94,446.24,979.17,449.59,979.65Z" transform="translate(-372.42 -132.85)" style="fill:#f4f9f3"/><path d="M760.59,318.65a9.85,9.85,0,0,1-3,3,41.81,41.81,0,0,1-7.19.18l-3.85-.08-3-.1a13.38,13.38,0,0,1,9.06-3.75l2.6-.24C757.59,317.65,757.59,317.65,760.59,318.65Z" transform="translate(-372.42 -132.85)" style="fill:#76b76d"/><path d="M508.07,132.85c4.47,2.61,7.23,5.65,10.31,9l1.65,1.78,5.19,5.66,3.41,3.7q10.46,11.37,20.59,22.86a53,53,0,0,1-13.72,0c-4.23-2.46-6.46-5.77-9.14-9-2.15-2.35-4.34-4.68-6.54-7q-4.37-4.67-8.66-9.35a9.12,9.12,0,0,0-3.09-2.63l-2.21,2.47-8.13,9-3.51,3.91-5.05,5.61-3.07,3.41c-2.42,2.59-2.42,2.59-3.94,3.59-4.57.14-9.14,0-13.72,0a179.89,179.89,0,0,1,15.63-18.19l5.28-5.55,2.59-2.71c4.2-4.43,8.34-8.89,12.49-13.34A14.9,14.9,0,0,1,508.07,132.85Z" transform="translate(-372.42 -132.85)" style="fill:#49a03d"/><path d="M535.66,191.91C545.46,198.26,552,208,553.87,218c1.51,15.38-.78,30.45-13.47,42.67-8.62,7-20.2,11-32.42,11.17-13-.12-22.92-3.22-32.52-10.26-13-10.8-14-23.93-13.77-38.2.46-10.18,4.77-18.07,12.82-25.84l1.88-1.83C491.62,182.28,517.64,182.29,535.66,191.91Zm-49.18,4.6c-8.4,9.38-10.28,20.33-10.12,31.66l0,2.88c.05,11.59,3.29,23.64,13.47,32.28,7,5.1,12.71,6.07,22.1,5.85,8.12-.71,12.65-4.33,17.69-9.29C540,248.3,541.5,230.46,539,216.66c-2.31-9.83-6.9-19.11-17-25.36C508.7,184.17,496.11,186.94,486.48,196.51Z" transform="translate(-372.42 -132.85)" style="fill:#49a03d"/><path d="M731,219a13.84,13.84,0,0,1,6.5,8.09c.46,4.23.06,7.63-2.47,11.13a13.91,13.91,0,0,1-8.4,4.57c-3.91.14-6.47-.42-9.6-2.83-2.87-2.77-3.77-5.52-3.95-9.47a13,13,0,0,1,4.33-9.81A14.75,14.75,0,0,1,731,219Z" transform="translate(-372.42 -132.85)" style="fill:#49a03d"/><path d="M603.68,371.73c0-40.77-20.92-46.52-39.7-46.52-15,0-30,2.3-45.06,4.6s-29.5,4.59-44.52,4.59c-49.36,0-70.28-34.45-70.28-83.27V239.07h29.51v10.34c0,33.88,17.16,45.37,46.13,45.37,12.34,0,25.21-1.73,38.09-4,13.41-2.3,26.29-4,40.77-4,34.33-.58,51.5,15.5,57.94,41.34h1.07c5.9-25.84,24.14-41.92,58.47-41.34a228.86,228.86,0,0,1,40.77,4c13.42,2.29,25.75,4,38.63,4,30,0,46.67-13.21,46.67-45.37V239.07h29.5v12.06c0,47.67-19.31,83.27-73.49,83.27-14.48,0-29.5-2.3-44-4.59s-29-4.6-43.45-4.6c-16.63,0-39.7,5.75-39.7,46.52Z" transform="translate(-372.42 -132.85)" style="fill:#49a03d"/><line x1="1551.83" y1="347.82" x2="1551.83" y2="1445.82" style="fill:none;stroke:#000;stroke-miterlimit:10;stroke-width:5px"/><line x1="244.87" y1="95.85" x2="306.86" y2="95.85" style="fill:none;stroke:#fff;stroke-miterlimit:10;stroke-width:2px"/><path d="M568.5,645.8,645.69,498h18.82L587,645.8Z" transform="translate(-372.42 -132.85)" style="fill:#49a03d"/><path d="M745.64,577,672.23,607.9v-9l62.33-25.48v-.26l-62.33-25.48v-9l73.41,30.94Z" transform="translate(-372.42 -132.85)" style="fill:#49a03d"/><path d="M485.67,567,554.24,536v9L496,570.49v.26l58.23,25.48v9l-68.57-31Z" transform="translate(-372.42 -132.85)" style="fill:#49a03d"/><path d="M700.88,726.11h11.76V829.52H700.88Z" transform="translate(-372.42 -132.85)" style="fill:#49a03d"/><path d="M673.56,726.11h11.77V829.52H673.56Z" transform="translate(-372.42 -132.85)" style="fill:#49a03d"/><path d="M506.35,726.11h11.77V829.52H506.35Z" transform="translate(-372.42 -132.85)" style="fill:#49a03d"/><path d="M559.06,726.11h11.77V829.52H559.06Z" transform="translate(-372.42 -132.85)" style="fill:#49a03d"/><path d="M531.75,726.11h11.76V829.52H531.75Z" transform="translate(-372.42 -132.85)" style="fill:#49a03d"/><line x1="211.36" y1="647.64" x2="276.72" y2="647.64" style="fill:none;stroke:#fff;stroke-miterlimit:10"/></svg>